<?xml version="1.0" encoding="UTF-8"?>
<svg id="Layer_2" xmlns="http://www.w3.org/2000/svg" xmlns:xlink="http://www.w3.org/1999/xlink" version="1.1" viewBox="0 0 1417.3 1419.3">
  
  <defs>
    
    <clipPath id="clippath">
      <rect fill="none" width="1417.3" height="1417.3"></rect>
    </clipPath>
  </defs>
  <rect fill="none" width="1417.3" height="1417.3"></rect>
  <g>
    <g>
      <g>
        <path fill="#00D3C8" d="M360.2,722.6c-9.2-3.8-20.3-5.6-33-5.6h-30.1c-3.2,0-5.9-1.1-8-3.2-2.2-2.2-3.3-4.9-3.3-8.1s1.1-5.5,3.3-7.5c2.2-2.1,4.8-3.1,8-3.1h76.4v-42.5h-84.6c-10.3,0-19.7,2.5-28.2,7.5-8.6,5-15.3,11.6-20.2,19.9-4.9,8.2-7.4,17.4-7.4,27.4s2.7,23.6,8.1,31.7c5.4,8.1,12.7,14,21.9,17.8,9.2,3.8,19.6,5.6,31,5.6h30.8c2.3,0,4.3.5,6.2,1.5,1.8,1,3.3,2.5,4.5,4.3,1.1,1.8,1.7,3.9,1.7,6.2s-.6,4-1.7,5.8c-1.1,1.8-2.6,3.3-4.5,4.3-1.8,1-3.9,1.5-6.2,1.5h-174.2v42.1h181.7c10.7,0,20.4-2.5,28.9-7.5,8.6-5,15.4-11.8,20.5-20.2,5.1-8.4,7.7-17.8,7.7-28.1s-2.6-23.6-7.7-31.8c-5.1-8.2-12.3-14.2-21.6-18Z"></path>
        <path fill="#00D3C8" d="M609.5,653c-16.2,0-28.9,4.6-38,13.7-9.1,9.1-13.7,21.7-13.7,37.7v79.4h-60.4c-2.7,0-5.1-1-7-2.9-1.9-1.9-2.9-4.3-2.9-7v-77.7h46.2v-43.5h-46.2v-57.1h-43.5v57.1h-46.5v43.5h46.5v80.8c0,15.8,2.1,29.6,11.2,38.8,9.1,9.2,16.3,12.6,32.5,12.6h113.6v-120.5c0-3.4,1.1-6.2,3.4-8.4,2.3-2.2,5-3.2,8.2-3.2h47.6v-43.1h-51Z"></path>
      </g>
      <g>
        <path fill="#00D3C8" d="M834.6,651c-7.5,0-13.9-2.7-19.4-8.2-5.5-5.5-8.2-11.9-8.2-19.4s2.7-14,8.2-19.5c5.5-5.6,11.9-8.3,19.4-8.3s13.9,2.8,19.4,8.3c5.5,5.6,8.2,12.1,8.2,19.5s-2.7,13.9-8.2,19.4c-5.5,5.5-11.9,8.2-19.4,8.2Z"></path>
        <path fill="#00D3C8" d="M725.5,652.5h-40.8v43.1h40.8c51.2,0,92.8,41.7,92.8,92.8v39.9h43.8v-39.9c0-75.3-61.3-135.9-136.6-135.9Z"></path>
      </g>
      <path fill="#00D3C8" d="M1022.1,593.9h41.9v147.9c0,12.5-2.4,24.1-7.1,34.9-4.7,10.8-11,20.1-18.9,28-7.9,7.9-17.3,14.2-28.3,18.9-10.9,4.7-22.5,7.1-34.7,7.1s-24.1-2.4-34.9-7.1c-10.8-4.7-20.1-11-28-18.9-7.9-7.9-14.2-17.2-18.9-28-4.7-10.8-7.1-22.4-7.1-34.9s2.4-23.7,7.1-34.7c4.7-10.9,11-20.4,18.9-28.3,7.9-7.9,17.2-14.2,28-18.9,10.8-4.7,22.4-7.1,34.9-7.1s33.3,4.3,47,12.8v-71.7ZM975.1,788.7c6.4,0,12.5-1.2,18.2-3.6,5.8-2.4,10.8-5.9,15-10.3,4.3-4.4,7.6-9.4,10-15,2.4-5.6,3.6-11.6,3.6-18s-1.2-12.5-3.6-18.2c-2.4-5.8-5.8-10.8-10-15-4.3-4.3-9.3-7.6-15-10-5.8-2.4-11.9-3.6-18.2-3.6s-12.5,1.2-18.2,3.6c-5.8,2.4-10.8,5.8-15,10-4.3,4.3-7.6,9.3-10,15-2.4,5.8-3.6,11.9-3.6,18.2s1.2,12.4,3.6,18c2.4,5.6,5.8,10.6,10,15,4.3,4.4,9.3,7.8,15,10.3,5.8,2.4,11.9,3.6,18.2,3.6Z"></path>
      <path fill="#00D3C8" d="M1088.2,741.4v-.6c0-48.8,36.9-89,89.7-89s88.4,44.3,88.4,92.8-.3,8.3-.7,12.8h-129.7c1.7,16.2,21.5,33.5,44.5,33.5s37.2-14.6,42.2-24l29.4,24.6c-16.9,19.8-38.5,38.4-75.1,38.4-55.9,0-88.7-46.7-88.7-88.4ZM1222.5,723.5c-3-21.7-23-32.7-44.7-32.7s-40.8,10.7-44.8,32.7h89.5Z"></path>
    </g>
    <g>
      <path fill="#00D3C8" d="M484.9,512.7v45.1h-5.3l-27.1-33.7v33.7h-6.4v-45.1h5.3l27.1,33.7v-33.7h6.4Z"></path>
      <path fill="#00D3C8" d="M485.3,558.2h-6c0-.1-26.4-32.9-26.4-32.9v32.9h-7.2v-45.9h6c0,.1,26.4,32.9,26.4,32.9v-32.9h7.2v45.9ZM479.8,557.4h4.7v-44.3h-5.7v34.4l-.7-.9-27-33.5h-4.7v44.3h5.7v-34.4l.7.9,27,33.5Z"></path>
    </g>
    <g>
      <path fill="#00D3C8" d="M594.1,546.6h-24l-5,11.3h-6.6l20.4-45.1h6.4l20.5,45.1h-6.8l-5-11.3ZM591.9,541.4l-9.7-22.1-9.7,22.1h19.5Z"></path>
      <path fill="#00D3C8" d="M606.5,558.2h-7.6l-5-11.3h-23.5l-5,11.3h-7.5l20.8-45.9h6.9l20.9,45.9ZM599.3,557.4h5.9l-20.1-44.3h-5.9l-20.1,44.3h5.8l5-11.3h24.5l5,11.3ZM592.5,541.8h-20.7l10.3-23.5,10.3,23.5ZM573,541h18.3l-9.1-20.7-9.1,20.7Z"></path>
    </g>
    <g>
      <path fill="#00D3C8" d="M695.7,518.3h-15.5v-5.6h37.3v5.6h-15.5v39.5h-6.4v-39.5Z"></path>
      <path fill="#00D3C8" d="M702.5,558.2h-7.2v-39.5h-15.5v-6.4h38.1v6.4h-15.5v39.5ZM696.1,557.4h5.6v-39.5h15.5v-4.8h-36.5v4.8h15.5v39.5Z"></path>
    </g>
    <g>
      <path fill="#00D3C8" d="M812.4,512.7h6.4v45.1h-6.4v-45.1Z"></path>
      <path fill="#00D3C8" d="M819.3,558.2h-7.2v-45.9h7.2v45.9ZM812.8,557.4h5.7v-44.3h-5.7v44.3Z"></path>
    </g>
    <g>
      <path fill="#00D3C8" d="M955.4,512.7l-19.8,45.1h-6.4l-19.9-45.1h7l16.2,37.1,16.4-37.1h6.4Z"></path>
      <path fill="#00D3C8" d="M935.8,558.2h-6.9v-.2c-.1,0-20.2-45.7-20.2-45.7h7.8l16,36.5,16.1-36.5h7.3l-.2.6-19.9,45.4ZM929.5,557.4h5.9l19.4-44.3h-5.6l-16.6,37.7-16.5-37.7h-6.1l19.5,44.3Z"></path>
    </g>
    <g>
      <path fill="#00D3C8" d="M1065.5,552.2v5.6h-32.8v-45.1h32.8v5.6h-26.3v13.9h22.6v5.5h-22.6v14.6h26.3Z"></path>
      <path fill="#00D3C8" d="M1065.9,558.2h-33.5v-45.9h33.5v6.4h-26.3v13.1h22.6v6.3h-22.6v13.8h26.3v6.4ZM1033.1,557.4h32v-4.8h-26.3v-15.4h22.6v-4.7h-22.6v-14.7h26.3v-4.8h-32v44.3Z"></path>
    </g>
    <g>
      <path fill="#00D3C8" d="M166.5,890.2c1-.6,1.9-1.3,2.5-2.2.9-1.2,1.3-2.7,1.3-4.4s-.3-2.8-1-3.9c-.7-1.2-1.7-2.1-3-2.8-1.3-.7-3-1-4.9-1h-11.4v30.7h11.6c2.1,0,3.9-.4,5.4-1.1,1.5-.8,2.6-1.8,3.4-3.1.8-1.3,1.2-2.8,1.2-4.4s-.6-3.7-1.7-5.1c-.9-1.2-2.1-2-3.6-2.7ZM161.3,878.7c1.7,0,3.1.4,4.2,1.3,1,.9,1.6,2.1,1.6,3.7s-.5,2.9-1.5,3.8c-1,.9-2.3,1.3-3.9,1.3h-8.3v-10.2h8ZM166.7,901.9c-1.2,1.1-2.8,1.7-4.8,1.7h-8.6v-11.8h8.8c1.2,0,2.3.3,3.3.8.9.5,1.7,1.2,2.2,2.1.5.9.8,1.9.8,3,0,1.7-.6,3.1-1.8,4.2Z"></path>
      <polygon fill="#00D3C8" points="203.5 892.3 219 892.3 219 889.4 203.5 889.4 203.5 878.8 220.2 878.8 220.2 875.8 203.5 875.8 202.4 875.8 200.2 875.8 200.2 906.5 202.4 906.5 203.5 906.5 220.5 906.5 220.5 903.5 203.5 903.5 203.5 892.3"></polygon>
      <polygon fill="#00D3C8" points="246.5 878.8 257.4 878.8 257.4 906.5 260.7 906.5 260.7 878.8 271.5 878.8 271.5 875.8 246.5 875.8 246.5 878.8"></polygon>
      <polygon fill="#00D3C8" points="297 878.8 307.9 878.8 307.9 906.5 311.2 906.5 311.2 878.8 322 878.8 322 875.8 297 875.8 297 878.8"></polygon>
      <polygon fill="#00D3C8" points="353.1 892.3 368.6 892.3 368.6 889.4 353.1 889.4 353.1 878.8 369.8 878.8 369.8 875.8 353.1 875.8 352 875.8 349.8 875.8 349.8 906.5 352 906.5 353.1 906.5 370 906.5 370 903.5 353.1 903.5 353.1 892.3"></polygon>
      <path fill="#00D3C8" d="M414.6,891.8c1.4-.7,2.5-1.7,3.3-3,.8-1.3,1.1-2.8,1.1-4.5s-.4-3.1-1.1-4.4c-.8-1.3-1.9-2.3-3.3-3s-3.1-1.1-5.1-1.1h-11.1v30.7h3.3v-13.7h4.1l11.1,13.7h4.2l-11.3-13.7c1.8,0,3.4-.4,4.7-1.1ZM401.7,878.7h7.8c2,0,3.6.5,4.6,1.6,1.1,1.1,1.6,2.4,1.6,4.1s-.5,3.1-1.6,4.1c-1.1,1-2.6,1.5-4.7,1.5h-7.7v-11.3Z"></path>
      <path fill="#00D3C8" d="M516.5,880.2c-1.4-1.4-3.1-2.5-5-3.2-1.9-.8-4-1.1-6.2-1.1h-11.2v30.7h11.2c2.2,0,4.2-.4,6.1-1.2,1.9-.8,3.5-1.9,4.9-3.2,1.4-1.4,2.5-3,3.3-4.9.8-1.9,1.2-3.9,1.2-6.1s-.4-4.3-1.2-6.1c-.8-1.9-1.9-3.5-3.3-4.9ZM516,897.5c-1,1.9-2.5,3.3-4.3,4.4-1.8,1.1-4,1.6-6.4,1.6h-7.8v-24.6h7.8c2.4,0,4.5.5,6.3,1.6,1.8,1,3.3,2.5,4.3,4.4,1,1.9,1.6,4,1.6,6.4s-.5,4.5-1.5,6.4Z"></path>
      <polygon fill="#00D3C8" points="552.8 892.3 568.3 892.3 568.3 889.4 552.8 889.4 552.8 878.8 569.5 878.8 569.5 875.8 552.8 875.8 551.7 875.8 549.5 875.8 549.5 906.5 551.7 906.5 552.8 906.5 569.8 906.5 569.8 903.5 552.8 903.5 552.8 892.3"></polygon>
      <path fill="#00D3C8" d="M617.2,902.8c-1.5.7-3.3,1-5.2,1s-3.3-.3-4.8-.9c-1.5-.6-2.7-1.5-3.8-2.7-1.1-1.1-1.9-2.5-2.5-4-.6-1.5-.9-3.2-.9-5s.3-3.5.9-5c.6-1.5,1.4-2.9,2.5-4,1.1-1.1,2.3-2,3.8-2.6,1.4-.6,3-.9,4.8-.9s3.6.3,5.1,1c1.5.7,2.8,1.6,3.8,2.8l2.3-2.3c-1.4-1.5-3-2.6-4.9-3.4-1.9-.8-4-1.2-6.3-1.2s-4.2.4-6.1,1.2c-1.9.8-3.5,1.9-4.9,3.3-1.4,1.4-2.5,3.1-3.2,5-.8,1.9-1.1,4-1.1,6.2s.4,4.3,1.2,6.2c.8,1.9,1.9,3.6,3.3,5.1,1.4,1.5,3,2.6,4.9,3.4,1.9.8,3.9,1.2,6.1,1.2s4.5-.4,6.4-1.3c1.9-.8,3.6-2,4.9-3.5l-2.3-2.3c-1,1.2-2.3,2.1-3.9,2.8Z"></path>
      <rect fill="#00D3C8" x="651.4" y="875.8" width="3.3" height="30.7"></rect>
      <path fill="#00D3C8" d="M699.7,891.9c-.9-.7-1.9-1.2-3-1.7-1.1-.4-2.2-.9-3.3-1.2-1.1-.4-2.1-.8-3-1.3s-1.7-1.1-2.2-1.8c-.6-.7-.8-1.6-.8-2.8s.5-2.6,1.6-3.5c1.1-.8,2.5-1.2,4.3-1.2s2.8.3,3.9.9c1.1.6,2.2,1.5,3.1,2.6l2.3-2.3c-1-1.3-2.3-2.3-3.9-3.1-1.6-.8-3.3-1.2-5.3-1.2s-3.4.3-4.8,1c-1.4.6-2.5,1.6-3.3,2.7-.8,1.2-1.2,2.6-1.2,4.3s.3,2.9.8,3.9c.6,1,1.3,1.9,2.2,2.5.9.6,1.9,1.2,3,1.6,1.1.4,2.2.8,3.3,1.2,1.1.4,2.1.8,3,1.3.9.5,1.7,1.1,2.2,1.9.6.8.8,1.8.8,3s-.6,2.8-1.8,3.7-2.8,1.3-4.8,1.3-3.5-.4-4.9-1.1c-1.4-.7-2.6-1.8-3.6-3.3l-2.3,2.2c1.3,1.7,2.8,2.9,4.5,3.8,1.7.9,3.8,1.3,6.2,1.3s5.5-.7,7.3-2.2c1.8-1.5,2.7-3.5,2.7-6.2s-.3-3-.8-4c-.6-1.1-1.3-1.9-2.2-2.6Z"></path>
      <rect fill="#00D3C8" x="731.2" y="875.8" width="3.3" height="30.7"></rect>
      <path fill="#00D3C8" d="M789.4,879.9c-1.4-1.4-3-2.5-4.9-3.3-1.9-.8-3.9-1.2-6-1.2s-4.2.4-6,1.2c-1.9.8-3.5,1.9-4.9,3.3-1.4,1.4-2.5,3.1-3.2,5-.8,1.9-1.2,4-1.2,6.2s.4,4.3,1.2,6.2c.8,1.9,1.9,3.6,3.3,5,1.4,1.4,3,2.6,4.9,3.4s3.9,1.2,6.1,1.2,4.2-.4,6-1.2c1.8-.8,3.5-1.9,4.8-3.4,1.4-1.4,2.5-3.1,3.2-5,.8-1.9,1.2-4,1.2-6.2s-.4-4.3-1.2-6.2c-.8-1.9-1.9-3.6-3.3-5ZM788.8,897.7c-1,1.9-2.5,3.4-4.2,4.5-1.8,1.1-3.8,1.7-6.2,1.7s-3.3-.3-4.7-.9c-1.5-.6-2.7-1.5-3.8-2.7-1.1-1.1-1.9-2.5-2.5-4-.6-1.5-.9-3.2-.9-5s.5-4.6,1.5-6.5c1-1.9,2.4-3.4,4.2-4.5,1.8-1.1,3.8-1.6,6.1-1.6s3.3.3,4.8.9c1.5.6,2.7,1.5,3.8,2.6s1.9,2.5,2.5,4c.6,1.5.9,3.2.9,5s-.5,4.6-1.6,6.5Z"></path>
      <polygon fill="#00D3C8" points="842.7 900.2 824.7 875.8 822.4 875.8 822.4 906.5 825.7 906.5 825.7 882.1 843.6 906.5 846 906.5 846 875.8 842.7 875.8 842.7 900.2"></polygon>
      <path fill="#00D3C8" d="M891,891.9c-.9-.7-1.9-1.2-3-1.7-1.1-.4-2.2-.9-3.3-1.2-1.1-.4-2.1-.8-3-1.3s-1.7-1.1-2.2-1.8c-.5-.7-.8-1.6-.8-2.8s.5-2.6,1.6-3.5c1.1-.8,2.5-1.2,4.3-1.2s2.8.3,3.9.9c1.1.6,2.2,1.5,3.1,2.6l2.3-2.3c-1-1.3-2.3-2.3-3.9-3.1-1.6-.8-3.3-1.2-5.3-1.2s-3.4.3-4.8,1c-1.4.6-2.5,1.6-3.3,2.7-.8,1.2-1.2,2.6-1.2,4.3s.3,2.9.8,3.9c.6,1,1.3,1.9,2.2,2.5.9.6,1.9,1.2,3,1.6,1.1.4,2.2.8,3.3,1.2,1.1.4,2.1.8,3,1.3s1.7,1.1,2.2,1.9c.6.8.8,1.8.8,3s-.6,2.8-1.8,3.7c-1.2.9-2.8,1.3-4.8,1.3s-3.5-.4-4.9-1.1c-1.4-.7-2.6-1.8-3.6-3.3l-2.3,2.2c1.3,1.7,2.8,2.9,4.5,3.8,1.7.9,3.8,1.3,6.2,1.3s5.5-.7,7.3-2.2c1.8-1.5,2.7-3.5,2.7-6.2s-.3-3-.8-4c-.6-1.1-1.3-1.9-2.2-2.6Z"></path>
      <polygon fill="#00D3C8" points="990.3 900.6 982.5 875.8 980 875.8 972.3 900.7 964.4 875.8 961.1 875.8 971.1 906.5 973.5 906.5 981.3 881.7 989.1 906.5 991.5 906.5 1001.4 875.8 998.1 875.8 990.3 900.6"></polygon>
      <rect fill="#00D3C8" x="1029.3" y="875.8" width="3.3" height="30.7"></rect>
      <polygon fill="#00D3C8" points="1060.5 878.8 1071.3 878.8 1071.3 906.5 1074.6 906.5 1074.6 878.8 1085.4 878.8 1085.4 875.8 1060.5 875.8 1060.5 878.8"></polygon>
      <polygon fill="#00D3C8" points="1133.4 889.2 1116.6 889.2 1116.6 875.8 1113.3 875.8 1113.3 906.5 1116.6 906.5 1116.6 892.2 1133.4 892.2 1133.4 906.5 1136.7 906.5 1136.7 875.8 1133.4 875.8 1133.4 889.2"></polygon>
      <path fill="#00D3C8" d="M1221.2,875.8l-12.5,30.7h3.5l3.2-8h14l3.2,8h3.6l-12.5-30.7h-2.5ZM1216.5,895.7l5.9-14.6,5.8,14.6h-11.7Z"></path>
      <rect fill="#00D3C8" x="1264" y="875.8" width="3.3" height="30.7"></rect>
    </g>
  </g>
  <text transform="translate(527.6 1322.9)"><tspan x="0" y="0"> </tspan></text>
  <g opacity="0.3">
    <path fill="#00D3C8" d="M626.6-392h-350V-8.5h350c439.1,0,796.4,370.6,796.4,826.1v354.8h375.6v-354.8c0-670.3-525.8-1209.6-1172-1209.6Z"></path>
  </g>
</svg>